PathFileType	4	(X/Y/Z)	Patient4_TMGait_0pt6_01_right_34.trc.trc
DataRate	CameraRate	NumFrames	NumMarkers	Units	OrigDataRate	OrigDataStartFrame	OrigNumFrames
84.337349397591	84.337349397591	4	33	mm	84.337349397591	71	       141
Frame#	Time	Sacral			L.Shoulder			Chest			R.Shoulder			Neck			R.ASIS			L.ASIS			R.Thigh.Superior			R.Thigh.Lateral			R.Thigh.Inferior			R.Patella			L.Thigh.Superior			L.Thigh.Lateral			L.Thigh.Inferior			L.Patella			L.Shank.Superior			L.Shank.Lateral			L.Shank.Inferior			R.Shank.Superior			R.Shank.Lateral			R.Shank.Inferior			R.Heel			R.Midfoot.Superior			R.Midfoot.Lateral			R.Toe			L.Heel			L.Midfoot.Lateral			L.Midfoot.Superior			L.Toe			L.Elbow			L.Wrist			R.Elbow			R.Wrist			
		X1	Y1	Z1	X2	Y2	Z2	X3	Y3	Z3	X4	Y4	Z4	X5	Y5	Z5	X6	Y6	Z6	X7	Y7	Z7	X8	Y8	Z8	X9	Y9	Z9	X10	Y10	Z10	X11	Y11	Z11	X12	Y12	Z12	X13	Y13	Z13	X14	Y14	Z14	X15	Y15	Z15	X16	Y16	Z16	X17	Y17	Z17	X18	Y18	Z18	X19	Y19	Z19	X20	Y20	Z20	X21	Y21	Z21	X22	Y22	Z22	X23	Y23	Z23	X24	Y24	Z24	X25	Y25	Z25	X26	Y26	Z26	X27	Y27	Z27	X28	Y28	Z28	X29	Y29	Z29	X30	Y30	Z30	X31	Y31	Z31	X32	Y32	Z32	X33	Y33	Z33	

71	41.640000000000	754.515088611455	1006.370319803048	507.729865207316	909.106162404266	1429.189157114865	310.959374955526	1033.102188509952	1359.729967545737	456.209681993789	974.465068728712	1434.226651586137	638.137873415258	909.214042692397	1488.708944825431	464.295468827484	985.940369095709	934.259305751401	601.824704353551	950.664541381919	956.734377684287	329.716327954873	983.240625750480	720.990220209442	571.155687339882	881.800794524848	626.436116450312	634.633559145763	938.308672396321	562.334476501848	550.509147836069	918.587211485258	476.351752908203	553.020683989534	1027.697188188799	770.688369405012	361.248804778069	974.153408647173	641.931279446242	288.794692429991	1078.064770428575	583.869418347773	349.000347911844	1102.193358477076	518.293516386925	349.001956180330	1086.422450185826	444.757176560909	339.844714239687	1019.908173607855	314.632407394240	292.014933337907	1106.093761906868	216.865441992383	349.076901577077	879.022030121004	393.055835887317	559.535363079559	796.346028790180	299.166229466038	622.604699582132	818.466634336629	201.221858568116	554.581538618386	663.623371294667	46.383728426080	526.263672788357	836.455537190100	95.992047062863	559.152777071756	747.670384182408	37.749903869252	599.074785651132	955.957938937305	39.562568865200	585.814057825736	1021.189472943533	41.121838975017	390.079956624430	1094.971969966509	44.137261453159	309.825951472962	1167.210853032383	118.842978934852	330.626300068611	1300.050504583320	85.137219712966	305.386032534206	801.874311955399	1089.025127396229	207.987311198739	780.918041640244	830.963023111178	202.917119157946	1118.397492012667	1131.204618793857	755.571902163851	1303.407401807122	1267.781936638081	667.145468495086	
72	41.651857142857	755.320143840457	1005.246036058916	505.526009502489	908.860000572493	1428.198308624616	309.063273588902	1032.850245892545	1359.165302778153	454.450003099344	973.719759120492	1433.339209469582	636.434423401097	908.758589950622	1487.821703739279	462.450223945969	986.604969054056	933.363011998188	600.607004981905	952.179860272513	955.538477288806	328.372290961425	983.067964203716	719.827497571189	570.590496230499	880.609785871282	625.810159878382	633.587037362555	937.271031413087	561.077868846784	549.985538067293	916.689010288671	474.850188248798	552.254950452789	1029.572186970395	769.076097485949	359.752145583619	973.450482586729	639.738699999037	289.387885255497	1078.059232384298	581.694192731887	348.435624449479	1100.638400447383	514.856531820219	349.659068286200	1083.626721545082	440.899645851221	340.999389659599	1014.000434043389	312.303853835668	293.087045720565	1097.125521193659	212.462724744982	351.077140102134	876.086757476815	392.094339582732	558.892870116879	792.146376933502	299.420688857898	622.277500828406	812.966517313186	201.029160382369	554.417846250637	656.587711654832	47.240574460282	526.417897641950	829.585839094406	96.095013291668	559.278393190234	740.623077746543	38.118577339197	599.084929122525	948.857449263461	39.276673996947	585.908795890961	1006.523500145476	40.010678330273	391.167890720863	1081.005837548973	41.212785624403	311.377810896103	1155.686647977451	112.993661081857	333.614898645579	1287.803038334828	74.771941655096	308.975416888625	802.694344492850	1087.798097386415	205.636710629451	784.967799596797	829.386403438623	200.642951407042	1117.590050340226	1129.957029161302	754.016593702049	1301.436114908081	1267.437594626698	664.613179112587	
73	41.663714285714	756.193795576448	1004.206208085469	503.165294221682	908.747491728145	1427.259860293477	307.044748206343	1032.641259833079	1358.739513274309	452.672763263104	972.875170113125	1432.566239062550	634.701398097861	908.348814690381	1487.043823862633	460.507030279740	987.343684834634	932.510367814658	599.347669976240	953.840090666493	954.488267238923	327.043071320665	983.123419201983	718.753997441310	569.964784171144	879.627561241780	625.281130329930	632.417288389494	936.493505563235	559.904845412574	549.380646305710	915.066587507206	473.368884738742	551.402835620437	1031.338794451391	767.268819512078	358.341372624399	972.869103291714	637.811228832537	289.685688117838	1077.803842270941	579.533054939119	348.128163328907	1098.886014493510	511.582305224087	350.366595070717	1080.799088257330	437.360981749664	341.972923215006	1008.526868817117	310.185985391255	293.772602946471	1088.701509180878	208.519337736584	352.804527938758	873.343165652277	391.196162796070	558.170683898186	788.082726317184	299.834995804623	621.887539303630	807.581862989704	200.976767329437	554.256802683341	649.603383475356	48.380668096116	526.605226640442	822.821869612010	96.271615666527	559.449670652741	733.620978269901	38.620231327428	599.109691402390	941.782885806276	38.972429577157	586.007650095220	992.808588062687	39.084394108582	391.815463679667	1068.042469501773	38.822228517164	312.563017250197	1144.813100472142	107.907629122856	336.373341149374	1276.304880628385	65.723409402373	312.438709864055	803.866816177565	1086.515922736063	203.193986121205	789.885915598744	827.731385746091	198.257168765193	1116.087954743076	1128.354078577982	752.457136207773	1299.588416298242	1265.892385265507	662.263707604854	
74	41.675571428571	757.098562338035	1003.336119753159	500.694547405156	908.779514250494	1426.450949278055	304.935756845649	1032.496731287418	1358.493786170343	450.890708304853	971.996289097608	1431.973047990298	632.947256747047	908.016687893492	1486.439456724526	458.493548180038	988.127579777717	931.758429978977	597.991187104085	955.541253191407	953.672106132281	325.677825939217	983.372710999295	717.834202448000	569.197652090117	878.886600995929	624.891011373106	631.112024689164	935.993833115270	558.873951267892	548.659693480133	913.781460409919	471.938484859669	550.485869613002	1032.868635189111	765.431674662377	357.040975004732	972.485194447584	636.288156259503	289.614574929107	1077.323176412389	577.577908175482	348.066302678679	1097.027821372317	508.682045399221	351.024694790476	1078.059866399439	434.319752089022	342.682352454849	1003.673787757990	308.405652845784	294.044293205310	1081.079562568611	205.222407773716	354.185775298651	870.823828264312	390.400258317736	557.389471518320	784.182522287114	300.459152856432	621.442689758333	802.343995865609	201.111208357888	554.118987982255	642.687417615466	49.872076883109	526.833797674137	816.197814718184	96.537646369295	559.683630696341	726.674583863077	39.281761539212	599.157794658099	934.739374399373	38.657414626700	586.104977404313	980.495554054844	38.395792825426	392.132531612847	1056.429669938561	37.052896070513	313.399953720631	1134.867148958225	103.816967853610	338.745413533002	1265.841558214164	58.403629965756	315.472461494265	805.455061201491	1085.245726935965	200.695617611589	795.639683463073	826.090281590941	195.787286903539	1113.884658989703	1126.443263466579	750.878203396835	1297.910472146433	1263.121080135310	660.099261273733	
